<svg version="1.1" id="Layer_1" xmlns="http://www.w3.org/2000/svg" xmlns:xlink="http://www.w3.org/1999/xlink" x="0px" y="0px"
	 width="100%" viewBox="0 0 1024 1024" enable-background="new 0 0 1024 1024" xml:space="preserve">
<path fill="#000000" opacity="1.000000" stroke="none" 
	d="
M212.642395,630.463989 
	C215.113937,637.250610 217.291031,643.724854 219.841751,650.048462 
	C220.979523,652.869080 220.664001,654.684326 218.121307,656.391418 
	C215.260727,658.311829 212.590225,660.515381 209.087418,663.162231 
	C198.391724,628.543579 193.257645,593.947571 193.748657,556.915466 
	C173.951004,575.030884 150.955536,578.513733 125.950310,577.143555 
	C129.118790,568.341187 136.861542,563.402649 143.030243,555.802856 
	C129.428146,553.804993 117.325691,549.963562 104.982933,546.656799 
	C105.005096,541.414856 109.867065,539.603882 112.391380,535.341125 
	C97.167030,524.456238 80.697495,515.803345 62.894184,507.350006 
	C82.498650,494.635284 104.775482,498.255707 125.462852,492.395782 
	C111.966179,478.253082 100.354309,463.625763 91.290306,446.468475 
	C96.714127,445.042297 101.002708,447.886322 106.296402,448.621826 
	C104.774643,441.579926 100.793968,436.564056 96.623459,431.700592 
	C92.529144,426.926056 88.274971,422.288635 83.278610,416.678925 
	C99.597961,412.923920 114.004715,415.656189 127.161041,423.718170 
	C129.513916,421.657196 127.213425,419.625732 128.610443,417.811005 
	C131.350510,417.627594 133.409744,419.451965 135.574051,420.830566 
	C144.183090,426.314545 151.983887,432.797241 159.096283,440.118896 
	C160.368500,441.428528 161.661377,442.786499 163.168304,443.784485 
	C165.780853,445.514740 167.613586,444.935486 167.899033,441.535217 
	C168.277542,437.026306 167.988007,432.543640 167.062866,428.120453 
	C164.879700,417.682648 165.029678,407.300995 167.585983,396.942841 
	C167.908737,395.635040 168.073380,394.318024 169.509415,393.230865 
	C173.908920,395.516144 174.574371,401.714813 180.402634,403.898193 
	C184.787613,391.117676 186.839859,378.322845 184.649063,364.600220 
	C189.990738,365.451630 192.271561,369.934540 196.314072,372.107178 
	C199.113586,367.538361 198.785034,362.366669 200.212296,357.698120 
	C201.659393,352.964630 203.663315,348.479767 206.965332,343.820679 
	C214.987473,358.349884 224.282547,371.352539 226.172150,388.498596 
	C231.323257,383.107910 229.789749,377.744659 229.003067,372.342957 
	C232.715271,372.713837 234.080780,375.047272 235.313263,377.349792 
	C239.990387,386.087616 242.100708,395.297791 240.761978,405.281952 
	C239.579437,414.101501 240.086487,422.924805 242.440460,431.525116 
	C245.038773,441.018219 250.740814,442.562653 257.376434,435.220795 
	C265.396332,426.347168 274.564789,419.013519 284.613953,412.674530 
	C285.686890,411.997742 286.675751,410.898376 288.489136,411.489075 
	C288.846985,415.007080 286.564728,418.005615 286.183807,421.412415 
	C285.387909,428.530518 287.639343,430.912292 294.611206,429.350616 
	C304.352234,427.168701 314.125275,424.997131 323.235657,420.685059 
	C324.121765,420.265656 325.008698,419.704742 327.035034,420.458649 
	C323.196198,437.027771 310.595764,449.623505 305.396698,465.801666 
	C311.530273,468.450897 316.937531,464.525574 323.532959,464.543854 
	C317.709198,474.100800 312.567566,483.184296 306.788727,491.842468 
	C300.844757,500.748047 289.418488,503.299591 282.452148,512.144714 
	C303.294281,515.414185 324.284424,517.059448 345.150665,525.791504 
	C328.786896,534.378235 311.933289,539.574646 298.039703,550.891235 
	C300.105927,553.486938 303.739777,552.800964 306.915619,554.813416 
	C291.502625,568.898865 271.880066,566.037964 253.769211,569.288757 
	C254.902237,575.248413 260.620056,577.678467 263.109894,583.613098 
	C250.127701,586.577454 237.853500,586.150757 225.826584,581.485168 
	C212.666000,576.379822 209.144470,563.901978 204.482178,552.175232 
	C199.209198,579.194214 205.328995,604.697815 212.642395,630.463989 
M210.341644,402.318787 
	C211.982147,420.294678 213.592255,438.270416 210.413071,457.463196 
	C201.476013,448.747406 193.545502,440.642090 187.643890,430.718140 
	C191.068726,440.291565 197.776764,447.441620 204.942444,454.141052 
	C208.895554,457.836914 210.426483,461.890533 210.462662,467.333374 
	C210.556595,481.460907 208.456116,495.168091 204.578079,508.705688 
	C201.676483,518.834717 198.348495,528.860901 197.069702,540.440491 
	C192.289307,536.370850 190.246506,531.791565 187.880569,527.553711 
	C182.921555,518.670898 178.304001,509.779297 180.632935,498.827301 
	C182.213150,491.396301 182.607895,483.713226 183.532806,476.142883 
	C181.023926,486.054108 180.391052,496.347656 177.481201,507.328339 
	C172.583221,501.211731 168.585907,496.129883 164.486038,491.132172 
	C161.838943,487.905365 160.804642,484.327057 160.527069,480.131958 
	C160.177490,474.848389 160.168365,469.442963 158.300781,463.219910 
	C158.143921,469.934723 160.600571,475.583405 158.314056,481.871429 
	C153.314072,477.554535 149.274918,473.221619 146.511002,469.418121 
	C137.952835,468.902496 131.288940,464.606262 123.868073,463.685059 
	C128.661057,465.584961 133.600143,467.041046 138.371368,468.922821 
	C142.168823,470.420563 146.509598,470.854340 149.347748,474.446136 
	C152.752197,478.754669 156.520737,482.780060 159.843597,487.147217 
	C163.505951,491.960632 166.841354,497.022797 170.930923,502.847961 
	C163.866150,503.317078 158.822205,500.115570 153.323792,499.403442 
	C158.485733,501.722870 163.393021,504.610291 169.221558,505.002228 
	C173.028076,505.258270 175.629181,507.463806 177.356354,510.826416 
	C181.673248,519.231018 183.745087,528.612671 189.905380,537.315002 
	C184.774918,536.859131 180.874680,536.686951 177.029953,536.130981 
	C170.937805,535.249939 164.714905,534.460876 159.636124,530.559387 
	C154.827255,526.865234 149.576355,524.054138 143.987030,521.827148 
	C135.324890,518.375854 126.603790,515.092102 117.439957,513.192017 
	C129.173416,518.030884 141.734039,521.014587 152.113647,528.991516 
	C150.508255,531.978149 147.085571,531.935181 145.484207,534.818237 
	C152.394592,528.950562 158.026154,533.388489 163.954193,536.314819 
	C168.152710,538.387390 172.722733,539.351990 177.420624,539.739563 
	C180.563644,539.998779 183.732056,540.341919 186.793396,541.057129 
	C188.735886,541.510925 191.609680,541.365112 191.887421,544.195129 
	C192.123581,546.601807 189.645782,547.273132 188.027603,548.296021 
	C178.282959,554.456238 168.054230,559.649475 157.122086,563.413757 
	C171.004379,561.659180 183.413162,556.670044 193.527771,546.774963 
	C194.994781,545.339783 196.585831,545.333252 198.117416,545.877869 
	C206.748383,548.946777 216.516357,549.290894 223.489410,556.403442 
	C224.280457,557.210266 225.452026,557.643982 226.447128,558.250732 
	C224.309982,554.986938 220.138992,553.985046 218.501465,549.988708 
	C219.305054,549.608459 219.870972,549.113220 220.446579,549.101685 
	C234.458313,548.821167 248.246277,546.426941 262.108002,544.737854 
	C265.373413,544.339966 268.315826,545.538696 271.359802,546.404724 
	C274.133514,547.193848 276.772949,548.864014 280.425812,548.475037 
	C277.212067,546.392090 273.309601,547.022644 270.911926,543.130615 
	C282.580231,539.813477 294.627197,539.450684 305.679688,533.543579 
	C290.836273,536.163757 276.659790,538.666199 262.483307,541.168640 
	C262.155060,540.609619 261.826813,540.050598 261.498566,539.491638 
	C263.794006,537.916870 266.089417,536.342102 268.384827,534.767395 
	C268.062134,534.408081 267.739441,534.048767 267.416748,533.689453 
	C265.489227,535.135681 263.604828,536.644165 261.624146,538.013489 
	C258.644257,540.073608 256.073029,542.948669 252.135376,543.223877 
	C239.525726,544.105286 226.964981,545.872375 214.273300,545.296753 
	C211.335907,545.163513 208.444794,544.963135 206.004135,543.749329 
	C205.811829,542.198669 206.511734,541.645081 207.197464,541.226379 
	C216.297455,535.668884 223.315567,527.856262 230.202423,519.924988 
	C233.047562,516.648315 236.447495,514.619141 240.675690,513.614563 
	C250.502594,511.279877 260.057495,508.102325 269.150177,503.580994 
	C259.115112,506.069489 249.080078,508.557953 238.291061,511.233398 
	C254.965118,485.533356 275.943298,464.854218 296.609802,442.385712 
	C277.132538,455.039459 265.687775,473.886108 249.939178,490.258545 
	C248.387741,478.182037 252.578918,468.220276 254.187119,457.946960 
	C251.272324,465.635315 249.751221,473.615387 248.117645,481.598633 
	C247.033493,486.896881 247.834595,492.806488 244.516479,497.433899 
	C234.966629,510.752106 223.850372,522.695251 211.379944,533.320984 
	C208.883652,535.447998 206.110519,537.933044 201.955154,536.970642 
	C202.030960,535.767212 201.977173,534.779663 202.170013,533.842834 
	C204.181061,524.073120 206.386642,514.340332 208.206726,504.535767 
	C209.130905,499.557281 211.105148,495.542480 215.080276,492.260162 
	C220.502869,487.782593 224.467041,482.096375 227.147491,475.520264 
	C222.138702,481.452850 218.255875,488.439758 211.498444,492.576050 
	C210.058792,491.635803 210.381699,490.587097 210.552887,489.636749 
	C213.306213,474.351379 213.838409,458.865021 214.340103,443.410400 
	C214.518234,437.923004 216.605515,433.988892 220.145706,430.206299 
	C223.589981,426.526184 226.277451,422.265320 228.083145,417.522552 
	C223.755463,422.573029 221.202637,429.111908 214.347366,433.383850 
	C212.706604,418.676697 212.218018,404.791107 209.741516,389.982697 
	C208.812744,394.659210 210.480072,397.975952 210.341644,402.318787 
z"/>
<path fill="#000000" opacity="1.000000" stroke="none" 
	d="
M401.595154,461.999878 
	C401.594177,444.334381 401.505920,427.168152 401.663177,410.004120 
	C401.697113,406.298950 400.558136,404.229187 396.968170,402.947327 
	C390.385132,400.596771 383.999207,397.699554 377.450897,395.244141 
	C374.371552,394.089539 373.182678,392.597900 373.481842,388.994385 
	C374.396210,377.980896 374.182220,377.963440 385.536346,377.959686 
	C410.534576,377.951477 435.532776,377.937042 460.531006,377.938110 
	C468.023651,377.938416 468.131561,378.061310 468.291992,385.358307 
	C468.469910,393.450897 468.462433,393.432129 460.742371,396.506348 
	C456.410828,398.231171 452.231567,400.489655 447.763458,401.683380 
	C441.684387,403.307526 440.356750,407.166718 440.438477,412.804138 
	C440.638885,426.631714 440.432678,440.464935 440.424805,454.295868 
	C440.410614,479.286438 440.424500,504.277008 440.421417,529.267578 
	C440.419159,547.757141 440.530243,566.248169 440.315369,584.735352 
	C440.262451,589.287415 441.624939,590.793640 446.277313,590.744446 
	C466.940186,590.526062 487.608612,590.505493 508.270386,590.772217 
	C512.699463,590.829468 514.366882,589.059631 515.636719,585.250305 
	C520.269470,571.352783 525.277466,557.580322 529.895630,543.678223 
	C531.184326,539.798645 532.804016,538.544189 537.097717,539.455872 
	C548.203125,541.814148 546.203369,539.746216 546.300354,550.506958 
	C546.452087,567.337769 546.235840,584.171936 546.416382,601.002197 
	C546.460388,605.108337 545.177063,606.430420 541.013000,606.420288 
	C487.350403,606.289734 433.687317,606.272461 380.024719,606.389099 
	C375.798615,606.398254 373.814453,605.055420 373.665710,600.876343 
	C373.624878,599.729065 373.286713,598.580139 372.991699,597.456421 
	C371.916046,593.359680 372.693573,590.607666 377.325012,589.144775 
	C383.345032,587.243225 389.041321,584.314758 395.064209,582.425049 
	C400.010620,580.873108 401.706665,578.207703 401.678680,572.991333 
	C401.481049,536.161804 401.586853,499.330566 401.595154,461.999878 
z"/>
<path fill="#000000" opacity="1.000000" stroke="none" 
	d="
M655.597290,573.463867 
	C647.417969,597.117249 639.570923,620.469971 631.250977,643.652954 
	C626.839172,655.946350 619.924011,666.978210 612.183105,677.493103 
	C609.448181,681.208191 606.213440,682.722839 601.538635,682.276550 
	C592.100464,681.375610 582.624084,680.853821 573.156311,680.297302 
	C570.389343,680.134644 568.980896,679.167175 568.652222,676.197754 
	C567.642212,667.071045 567.485901,666.862732 576.536682,664.444702 
	C599.617737,658.278320 612.821838,642.084778 621.304260,620.963440 
	C622.234985,618.645813 623.168091,616.328674 624.063293,613.997192 
	C626.390991,607.934753 626.468933,607.541016 619.918091,606.096313 
	C614.882507,604.985901 612.435608,602.149170 610.562622,597.644043 
	C593.368713,556.286194 575.975159,515.011230 558.790833,473.649384 
	C557.544739,470.650116 555.821106,469.169830 552.827026,468.462341 
	C548.296326,467.391785 543.849670,465.968231 539.324219,464.872223 
	C536.452942,464.176849 535.211609,462.924438 535.590637,459.670197 
	C536.619507,450.836304 536.681763,450.640503 545.509460,450.646210 
	C567.501831,450.660461 589.494202,450.682373 611.486450,450.640533 
	C614.820618,450.634186 617.738586,450.485535 618.182068,455.125000 
	C618.834534,461.949310 618.495483,462.963226 613.158081,464.421112 
	C607.090454,466.078491 601.023132,467.737061 594.270081,469.582520 
	C608.601440,503.938293 622.717712,537.778503 637.405762,572.989380 
	C648.842346,538.202332 659.830078,504.780396 670.937561,470.994446 
	C664.185303,468.014160 657.440430,466.883728 650.966980,464.922577 
	C646.243042,463.491455 643.435913,456.072266 646.106445,451.944733 
	C646.980530,450.593719 648.374634,450.683716 649.673218,450.681763 
	C668.666504,450.653229 687.660034,450.696198 706.652954,450.607086 
	C709.940918,450.591644 710.928528,452.124939 711.169434,455.122223 
	C711.884888,464.024994 712.091064,464.749908 703.494446,466.243408 
	C694.441956,467.816101 690.527039,472.553558 687.712036,481.118500 
	C677.578735,511.949585 666.472046,542.460754 655.597290,573.463867 
z"/>
<path fill="#000000" opacity="1.000000" stroke="none" 
	d="
M907.431274,598.508667 
	C896.355103,606.095703 884.463989,609.603577 871.378296,609.369751 
	C852.329468,609.029297 835.003967,593.044983 832.574341,574.118530 
	C829.073120,546.845093 844.474243,531.055908 863.503906,526.434082 
	C868.832886,525.139832 874.012146,523.240356 879.318176,521.838257 
	C890.415039,518.905945 901.626648,516.445740 912.960388,514.638184 
	C917.252930,513.953613 919.343140,512.313599 919.012695,507.546509 
	C918.484558,499.926544 919.064270,492.274872 917.793091,484.643646 
	C915.445740,470.552673 910.537048,465.696350 896.234802,464.475098 
	C889.735474,463.920166 883.267761,464.647522 876.798218,465.277283 
	C873.770996,465.571960 873.495544,467.512024 873.463440,469.833130 
	C873.366821,476.825287 873.205322,483.811554 872.352173,490.767975 
	C872.140198,492.496246 872.141846,494.208313 869.946777,494.512817 
	C862.765625,495.509064 855.578125,496.459259 848.612427,497.397583 
	C847.259644,495.138916 847.642822,493.264954 847.640015,491.477966 
	C847.625427,482.148987 847.661926,472.819763 847.717529,463.490875 
	C847.764282,455.641724 847.789856,455.651245 855.433777,453.093323 
	C873.385864,447.086060 891.804260,444.576202 910.532898,447.591431 
	C934.382141,451.431061 947.841064,466.755920 950.427002,490.773865 
	C951.842834,503.924561 951.137207,517.054138 951.305725,530.191467 
	C951.495850,545.015686 951.342102,559.844238 951.352173,574.670898 
	C951.356934,581.718079 952.681030,583.561646 959.507812,585.872803 
	C962.829834,586.997498 966.237671,587.758179 969.780457,587.701233 
	C972.662781,587.654907 974.276062,588.738281 973.587524,591.927246 
	C973.447754,592.574585 973.409424,593.247559 973.366882,593.911438 
	C972.679382,604.627014 972.684570,604.716125 962.140137,605.132019 
	C952.799316,605.500488 943.569031,606.837036 934.417786,608.512390 
	C930.445007,609.239685 928.638550,607.944824 927.020203,604.714539 
	C924.554626,599.793091 922.210449,594.858826 921.210815,588.472839 
	C916.395264,591.985229 912.063416,595.144775 907.431274,598.508667 
M906.212708,530.869629 
	C900.249146,532.346436 894.197510,533.539001 888.338989,535.354797 
	C872.379578,540.301208 867.181702,547.623840 867.351257,564.242615 
	C867.472839,576.156067 874.680847,583.839111 886.596436,584.864197 
	C896.520020,585.717896 905.663330,583.142761 914.536255,578.960327 
	C917.863037,577.392090 919.037048,575.134644 918.993591,571.516174 
	C918.841797,558.876648 918.970276,546.233948 918.931946,533.592651 
	C918.927185,532.016052 919.402405,530.226501 917.497192,528.724182 
	C914.165283,529.335144 910.595032,529.989868 906.212708,530.869629 
z"/>
<path fill="#000000" opacity="1.000000" stroke="none" 
	d="
M828.068604,488.275574 
	C823.442078,488.334778 821.337402,486.177277 820.590332,482.134399 
	C820.140320,479.698944 819.134521,477.366699 818.385559,474.985870 
	C816.431274,468.773560 813.698181,466.417145 807.224548,466.461914 
	C796.432922,466.536591 786.153992,469.162048 776.288269,473.506714 
	C773.943054,474.539459 773.274109,476.240082 773.277405,478.659698 
	C773.323364,512.638733 773.340820,546.617798 773.271057,580.596680 
	C773.265259,583.431335 774.381958,584.796509 776.974731,585.629028 
	C781.406372,587.052063 785.724243,588.827271 790.146973,590.280823 
	C792.937500,591.197876 793.549316,593.005188 793.202332,595.670959 
	C791.841248,606.127686 791.874573,606.099243 781.029663,606.079956 
	C763.040955,606.047974 745.050903,605.952209 727.064087,606.135925 
	C722.574951,606.181763 720.843933,604.626221 720.662842,600.143982 
	C720.263306,590.251160 720.099182,590.257812 729.494568,586.895264 
	C739.751221,583.224487 739.765442,583.224426 739.768921,572.140686 
	C739.779236,539.494202 739.667480,506.846954 739.888916,474.201904 
	C739.925537,468.796906 738.383911,465.980347 732.806213,465.877502 
	C730.821045,465.840912 728.829590,465.596313 726.861877,465.305206 
	C724.529419,464.960205 721.173340,466.508575 720.149353,463.582977 
	C718.910034,460.042236 718.338806,456.127106 719.079590,452.274841 
	C719.350952,450.863464 720.700134,450.792511 721.871033,450.682404 
	C735.777344,449.375183 749.687805,448.111145 763.587097,446.734161 
	C766.476868,446.447845 767.329834,448.107635 767.960510,450.366547 
	C769.202271,454.813873 769.461487,459.531036 771.440552,463.778595 
	C774.015747,464.099365 775.087341,462.109589 776.502258,460.872681 
	C793.368896,446.128113 812.282227,441.989197 833.625549,449.448700 
	C837.237976,450.711212 838.692261,452.309570 837.894897,456.333282 
	C836.086365,465.460327 834.712524,474.673492 833.161377,483.851562 
	C832.715210,486.491821 831.977844,488.828430 828.068604,488.275574 
z"/>
</svg>