<svg xmlns="http://www.w3.org/2000/svg" xmlns:xlink="http://www.w3.org/1999/xlink" width="500" zoomAndPan="magnify" viewBox="0 0 375 374.999991" height="500" preserveAspectRatio="xMidYMid meet" version="1.0"><defs><g/><clipPath id="8c9500f546"><path d="M 0.28125 4 L 7 4 L 7 10 L 0.28125 10 Z M 0.28125 4 " clip-rule="nonzero"/></clipPath><clipPath id="e02e285244"><rect x="0" width="33" y="0" height="13"/></clipPath><clipPath id="65793a63b7"><rect x="0" width="39" y="0" height="12"/></clipPath></defs><g fill="#222222" fill-opacity="1"><g transform="translate(57.668134, 213.936476)"><g><path d="M 24.515625 0 C 19.171875 0 15.242188 -1.378906 12.734375 -4.140625 C 10.234375 -6.910156 8.984375 -11.144531 8.984375 -16.84375 L 8.984375 -47.703125 L 1.21875 -47.703125 L 1.21875 -57.515625 L 8.984375 -57.515625 L 8.984375 -77.546875 L 25.390625 -77.546875 L 25.390625 -57.515625 L 37.40625 -57.515625 L 37.40625 -47.703125 L 25.390625 -47.703125 L 25.390625 -20.171875 C 25.390625 -18.242188 25.566406 -16.742188 25.921875 -15.671875 C 26.285156 -14.597656 26.929688 -13.847656 27.859375 -13.421875 C 28.785156 -13.003906 30.0625 -12.796875 31.6875 -12.796875 L 37.40625 -12.796875 L 37.40625 0 Z M 24.515625 0 "/></g></g></g><g fill="#222222" fill-opacity="1"><g transform="translate(91.340404, 213.936476)"><g><path d="M 7.328125 0 L 7.328125 -77.546875 L 23.828125 -77.546875 L 23.828125 0 Z M 7.328125 0 "/></g></g></g><g fill="#222222" fill-opacity="1"><g transform="translate(115.491556, 213.936476)"><g><path d="M 30.078125 -58.640625 C 34.796875 -58.640625 38.894531 -57.90625 42.375 -56.4375 C 45.863281 -54.976562 48.5625 -52.773438 50.46875 -49.828125 C 52.375 -46.878906 53.328125 -43.207031 53.328125 -38.8125 L 53.328125 0 L 38.8125 0 L 38.8125 -5.953125 C 35.363281 -3.191406 32.140625 -1.304688 29.140625 -0.296875 C 26.148438 0.710938 23.304688 1.21875 20.609375 1.21875 C 16.992188 1.21875 13.847656 0.582031 11.171875 -0.6875 C 8.503906 -1.957031 6.4375 -3.796875 4.96875 -6.203125 C 3.507812 -8.609375 2.78125 -11.503906 2.78125 -14.890625 C 2.78125 -17.691406 3.285156 -20.140625 4.296875 -22.234375 C 5.304688 -24.335938 6.722656 -26.171875 8.546875 -27.734375 C 10.367188 -29.296875 12.515625 -30.644531 14.984375 -31.78125 C 17.460938 -32.925781 20.148438 -33.90625 23.046875 -34.71875 L 38.8125 -39.203125 C 38.6875 -41.515625 37.816406 -43.28125 36.203125 -44.5 C 34.597656 -45.726562 32.394531 -46.34375 29.59375 -46.34375 C 27.40625 -46.34375 25.179688 -46 22.921875 -45.3125 C 20.660156 -44.625 18.488281 -43.691406 16.40625 -42.515625 C 14.320312 -41.347656 12.484375 -40.019531 10.890625 -38.53125 L 3.859375 -49.421875 C 7.828125 -52.640625 12.054688 -54.976562 16.546875 -56.4375 C 21.046875 -57.90625 25.554688 -58.640625 30.078125 -58.640625 Z M 25.390625 -10.40625 C 27.671875 -10.40625 29.929688 -10.984375 32.171875 -12.140625 C 34.421875 -13.296875 36.632812 -14.816406 38.8125 -16.703125 L 38.8125 -27.4375 L 26.953125 -23.640625 C 24.285156 -22.785156 22.300781 -21.804688 21 -20.703125 C 19.695312 -19.597656 19.046875 -18.082031 19.046875 -16.15625 C 19.046875 -14.375 19.601562 -12.96875 20.71875 -11.9375 C 21.84375 -10.914062 23.398438 -10.40625 25.390625 -10.40625 Z M 25.390625 -10.40625 "/></g></g></g><g fill="#222222" fill-opacity="1"><g transform="translate(167.913092, 213.936476)"><g><path d="M 40.328125 1.21875 C 37.367188 1.21875 34.820312 0.859375 32.6875 0.140625 C 30.5625 -0.566406 28.769531 -1.472656 27.3125 -2.578125 C 25.863281 -3.691406 24.6875 -4.832031 23.78125 -6 L 23.4375 -6 L 23.4375 0 L 7.328125 0 L 7.328125 -77.546875 L 23.828125 -77.546875 L 23.828125 -51.515625 L 24.125 -51.515625 C 25.195312 -52.847656 26.472656 -54.050781 27.953125 -55.125 C 29.429688 -56.195312 31.210938 -57.050781 33.296875 -57.6875 C 35.378906 -58.320312 37.820312 -58.640625 40.625 -58.640625 C 44.238281 -58.640625 47.484375 -57.921875 50.359375 -56.484375 C 53.242188 -55.054688 55.695312 -53.015625 57.71875 -50.359375 C 59.738281 -47.710938 61.273438 -44.566406 62.328125 -40.921875 C 63.390625 -37.273438 63.921875 -33.222656 63.921875 -28.765625 C 63.921875 -24.304688 63.378906 -20.234375 62.296875 -16.546875 C 61.222656 -12.867188 59.660156 -9.703125 57.609375 -7.046875 C 55.566406 -4.398438 53.09375 -2.359375 50.1875 -0.921875 C 47.289062 0.503906 44.003906 1.21875 40.328125 1.21875 Z M 34.8125 -12.0625 C 38.78125 -12.0625 41.847656 -13.4375 44.015625 -16.1875 C 46.179688 -18.9375 47.265625 -23.175781 47.265625 -28.90625 C 47.265625 -34.34375 46.179688 -38.425781 44.015625 -41.15625 C 41.847656 -43.894531 38.78125 -45.265625 34.8125 -45.265625 C 32.4375 -45.265625 30.34375 -44.601562 28.53125 -43.28125 C 26.726562 -41.96875 25.320312 -40.085938 24.3125 -37.640625 C 23.300781 -35.203125 22.796875 -32.289062 22.796875 -28.90625 C 22.796875 -25.320312 23.300781 -22.273438 24.3125 -19.765625 C 25.320312 -17.265625 26.726562 -15.351562 28.53125 -14.03125 C 30.34375 -12.71875 32.4375 -12.0625 34.8125 -12.0625 Z M 34.8125 -12.0625 "/></g></g></g><g fill="#222222" fill-opacity="1"><g transform="translate(228.293295, 213.936476)"><g><path d="M 27.390625 1.171875 C 24.492188 1.171875 21.53125 0.828125 18.5 0.140625 C 15.476562 -0.535156 12.539062 -1.550781 9.6875 -2.90625 C 6.84375 -4.257812 4.21875 -5.894531 1.8125 -7.8125 L 9.671875 -19.09375 C 11.128906 -17.53125 12.816406 -16.101562 14.734375 -14.8125 C 16.660156 -13.53125 18.707031 -12.515625 20.875 -11.765625 C 23.039062 -11.015625 25.226562 -10.640625 27.4375 -10.640625 C 28.9375 -10.640625 30.304688 -10.84375 31.546875 -11.25 C 32.785156 -11.65625 33.769531 -12.289062 34.5 -13.15625 C 35.226562 -14.019531 35.59375 -15.117188 35.59375 -16.453125 C 35.59375 -18.078125 34.96875 -19.265625 33.71875 -20.015625 C 32.46875 -20.765625 30.585938 -21.46875 28.078125 -22.125 L 21 -23.96875 C 17.644531 -24.882812 14.769531 -26.039062 12.375 -27.4375 C 9.988281 -28.84375 8.160156 -30.625 6.890625 -32.78125 C 5.617188 -34.945312 4.984375 -37.609375 4.984375 -40.765625 C 4.984375 -44.804688 5.953125 -48.144531 7.890625 -50.78125 C 9.828125 -53.414062 12.507812 -55.382812 15.9375 -56.6875 C 19.375 -57.988281 23.335938 -58.640625 27.828125 -58.640625 C 31.316406 -58.640625 34.457031 -58.25 37.25 -57.46875 C 40.050781 -56.6875 42.597656 -55.648438 44.890625 -54.359375 C 47.191406 -53.078125 49.285156 -51.65625 51.171875 -50.09375 L 43.84375 -40.046875 C 41.3125 -42.578125 38.632812 -44.46875 35.8125 -45.71875 C 33 -46.976562 30.304688 -47.609375 27.734375 -47.609375 C 25.617188 -47.609375 23.910156 -47.175781 22.609375 -46.3125 C 21.304688 -45.445312 20.65625 -44.234375 20.65625 -42.671875 C 20.65625 -41.441406 21.117188 -40.484375 22.046875 -39.796875 C 22.972656 -39.109375 24.300781 -38.539062 26.03125 -38.09375 L 35.546875 -35.5 C 37.503906 -34.976562 39.445312 -34.300781 41.375 -33.46875 C 43.3125 -32.644531 45.09375 -31.5625 46.71875 -30.21875 C 48.351562 -28.882812 49.65625 -27.179688 50.625 -25.109375 C 51.601562 -23.046875 52.09375 -20.488281 52.09375 -17.4375 C 52.09375 -11.539062 50 -6.960938 45.8125 -3.703125 C 41.632812 -0.453125 35.492188 1.171875 27.390625 1.171875 Z M 27.390625 1.171875 "/></g></g></g><g transform="matrix(1, 0, 0, 1, 245, 133)"><g clip-path="url(#e02e285244)"><g clip-path="url(#8c9500f546)"><g fill="#222222" fill-opacity="1"><g transform="translate(0.566753, 9.760947)"><g><path d="M 4.21875 0 L 3.796875 -1.359375 L 1.71875 -1.359375 L 1.3125 0 L 0 0 L 2.015625 -5.734375 L 3.5 -5.734375 L 5.515625 0 Z M 3.515625 -2.375 L 3.09375 -3.703125 C 3.070312 -3.796875 3.039062 -3.910156 3 -4.046875 C 2.957031 -4.179688 2.910156 -4.320312 2.859375 -4.46875 C 2.816406 -4.613281 2.785156 -4.738281 2.765625 -4.84375 C 2.734375 -4.738281 2.695312 -4.609375 2.65625 -4.453125 C 2.613281 -4.296875 2.570312 -4.144531 2.53125 -4 C 2.488281 -3.863281 2.457031 -3.765625 2.4375 -3.703125 L 2.03125 -2.375 Z M 3.515625 -2.375 "/></g></g></g></g><g fill="#222222" fill-opacity="1"><g transform="translate(5.69427, 9.760947)"><g><path d="M 2.890625 -3.203125 L 5.15625 -3.203125 L 5.15625 -0.25 C 4.851562 -0.144531 4.539062 -0.0625 4.21875 0 C 3.894531 0.0507812 3.53125 0.078125 3.125 0.078125 C 2.550781 0.078125 2.066406 -0.03125 1.671875 -0.25 C 1.273438 -0.476562 0.972656 -0.8125 0.765625 -1.25 C 0.566406 -1.6875 0.46875 -2.222656 0.46875 -2.859375 C 0.46875 -3.460938 0.582031 -3.984375 0.8125 -4.421875 C 1.039062 -4.859375 1.375 -5.195312 1.8125 -5.4375 C 2.257812 -5.675781 2.804688 -5.796875 3.453125 -5.796875 C 3.753906 -5.796875 4.050781 -5.757812 4.34375 -5.6875 C 4.632812 -5.625 4.898438 -5.539062 5.140625 -5.4375 L 4.75 -4.46875 C 4.570312 -4.5625 4.367188 -4.632812 4.140625 -4.6875 C 3.921875 -4.75 3.6875 -4.78125 3.4375 -4.78125 C 3.09375 -4.78125 2.789062 -4.695312 2.53125 -4.53125 C 2.269531 -4.375 2.066406 -4.148438 1.921875 -3.859375 C 1.785156 -3.578125 1.71875 -3.238281 1.71875 -2.84375 C 1.71875 -2.46875 1.765625 -2.132812 1.859375 -1.84375 C 1.960938 -1.5625 2.125 -1.335938 2.34375 -1.171875 C 2.5625 -1.015625 2.847656 -0.9375 3.203125 -0.9375 C 3.367188 -0.9375 3.507812 -0.941406 3.625 -0.953125 C 3.75 -0.972656 3.863281 -0.992188 3.96875 -1.015625 L 3.96875 -2.203125 L 2.890625 -2.203125 Z M 2.890625 -3.203125 "/></g></g></g><g fill="#222222" fill-opacity="1"><g transform="translate(11.095223, 9.760947)"><g><path d="M 4.015625 0 L 0.71875 0 L 0.71875 -5.71875 L 4.015625 -5.71875 L 4.015625 -4.71875 L 1.9375 -4.71875 L 1.9375 -3.46875 L 3.859375 -3.46875 L 3.859375 -2.46875 L 1.9375 -2.46875 L 1.9375 -1 L 4.015625 -1 Z M 4.015625 0 "/></g></g></g><g fill="#222222" fill-opacity="1"><g transform="translate(15.183681, 9.760947)"><g><path d="M 5.78125 0 L 4.25 0 L 1.765625 -4.328125 L 1.734375 -4.328125 C 1.742188 -4.140625 1.75 -3.953125 1.75 -3.765625 C 1.757812 -3.585938 1.769531 -3.410156 1.78125 -3.234375 C 1.789062 -3.054688 1.796875 -2.875 1.796875 -2.6875 L 1.796875 0 L 0.71875 0 L 0.71875 -5.71875 L 2.25 -5.71875 L 4.734375 -1.4375 L 4.75 -1.4375 C 4.75 -1.613281 4.742188 -1.785156 4.734375 -1.953125 C 4.722656 -2.128906 4.710938 -2.304688 4.703125 -2.484375 C 4.703125 -2.660156 4.703125 -2.835938 4.703125 -3.015625 L 4.703125 -5.71875 L 5.78125 -5.71875 Z M 5.78125 0 "/></g></g></g><g fill="#222222" fill-opacity="1"><g transform="translate(21.295569, 9.760947)"><g><path d="M 3.140625 -4.78125 C 2.910156 -4.78125 2.707031 -4.734375 2.53125 -4.640625 C 2.351562 -4.554688 2.203125 -4.429688 2.078125 -4.265625 C 1.960938 -4.097656 1.875 -3.894531 1.8125 -3.65625 C 1.75 -3.414062 1.71875 -3.144531 1.71875 -2.84375 C 1.71875 -2.4375 1.765625 -2.085938 1.859375 -1.796875 C 1.960938 -1.515625 2.117188 -1.300781 2.328125 -1.15625 C 2.535156 -1.007812 2.804688 -0.9375 3.140625 -0.9375 C 3.378906 -0.9375 3.613281 -0.960938 3.84375 -1.015625 C 4.070312 -1.066406 4.328125 -1.140625 4.609375 -1.234375 L 4.609375 -0.21875 C 4.347656 -0.113281 4.09375 -0.0390625 3.84375 0 C 3.601562 0.0507812 3.332031 0.078125 3.03125 0.078125 C 2.445312 0.078125 1.960938 -0.0390625 1.578125 -0.28125 C 1.203125 -0.53125 0.921875 -0.875 0.734375 -1.3125 C 0.554688 -1.75 0.46875 -2.257812 0.46875 -2.84375 C 0.46875 -3.28125 0.523438 -3.675781 0.640625 -4.03125 C 0.753906 -4.394531 0.925781 -4.707031 1.15625 -4.96875 C 1.382812 -5.226562 1.664062 -5.429688 2 -5.578125 C 2.332031 -5.722656 2.710938 -5.796875 3.140625 -5.796875 C 3.429688 -5.796875 3.71875 -5.757812 4 -5.6875 C 4.28125 -5.613281 4.550781 -5.515625 4.8125 -5.390625 L 4.421875 -4.40625 C 4.210938 -4.507812 4 -4.597656 3.78125 -4.671875 C 3.5625 -4.742188 3.347656 -4.78125 3.140625 -4.78125 Z M 3.140625 -4.78125 "/></g></g></g><g fill="#222222" fill-opacity="1"><g transform="translate(26.001212, 9.760947)"><g><path d="M 2.5 -3.359375 L 3.6875 -5.71875 L 5 -5.71875 L 3.09375 -2.21875 L 3.09375 0 L 1.890625 0 L 1.890625 -2.1875 L 0 -5.71875 L 1.3125 -5.71875 Z M 2.5 -3.359375 "/></g></g></g></g></g><g transform="matrix(1, 0, 0, 1, 238, 127)"><g clip-path="url(#65793a63b7)"><g fill="#222222" fill-opacity="1"><g transform="translate(1.316843, 8.962933)"><g><path d="M 4.015625 0 L 0.71875 0 L 0.71875 -5.71875 L 4.015625 -5.71875 L 4.015625 -4.71875 L 1.9375 -4.71875 L 1.9375 -3.46875 L 3.859375 -3.46875 L 3.859375 -2.46875 L 1.9375 -2.46875 L 1.9375 -1 L 4.015625 -1 Z M 4.015625 0 "/></g></g></g><g fill="#222222" fill-opacity="1"><g transform="translate(5.40531, 8.962933)"><g><path d="M 4.09375 -1.59375 C 4.09375 -1.25 4.007812 -0.953125 3.84375 -0.703125 C 3.675781 -0.453125 3.4375 -0.257812 3.125 -0.125 C 2.8125 0.0078125 2.429688 0.078125 1.984375 0.078125 C 1.785156 0.078125 1.59375 0.0625 1.40625 0.03125 C 1.21875 0.0078125 1.035156 -0.0234375 0.859375 -0.078125 C 0.691406 -0.128906 0.53125 -0.191406 0.375 -0.265625 L 0.375 -1.390625 C 0.644531 -1.273438 0.925781 -1.164062 1.21875 -1.0625 C 1.507812 -0.96875 1.796875 -0.921875 2.078125 -0.921875 C 2.273438 -0.921875 2.429688 -0.945312 2.546875 -1 C 2.671875 -1.050781 2.757812 -1.125 2.8125 -1.21875 C 2.875 -1.3125 2.90625 -1.414062 2.90625 -1.53125 C 2.90625 -1.675781 2.851562 -1.796875 2.75 -1.890625 C 2.65625 -1.992188 2.523438 -2.085938 2.359375 -2.171875 C 2.191406 -2.265625 2.003906 -2.363281 1.796875 -2.46875 C 1.660156 -2.53125 1.515625 -2.601562 1.359375 -2.6875 C 1.203125 -2.78125 1.050781 -2.890625 0.90625 -3.015625 C 0.769531 -3.148438 0.65625 -3.3125 0.5625 -3.5 C 0.476562 -3.6875 0.4375 -3.910156 0.4375 -4.171875 C 0.4375 -4.515625 0.515625 -4.804688 0.671875 -5.046875 C 0.828125 -5.285156 1.050781 -5.46875 1.34375 -5.59375 C 1.632812 -5.726562 1.976562 -5.796875 2.375 -5.796875 C 2.664062 -5.796875 2.945312 -5.757812 3.21875 -5.6875 C 3.488281 -5.625 3.769531 -5.523438 4.0625 -5.390625 L 3.671875 -4.453125 C 3.410156 -4.554688 3.175781 -4.632812 2.96875 -4.6875 C 2.757812 -4.75 2.546875 -4.78125 2.328125 -4.78125 C 2.179688 -4.78125 2.050781 -4.753906 1.9375 -4.703125 C 1.832031 -4.660156 1.753906 -4.59375 1.703125 -4.5 C 1.648438 -4.414062 1.625 -4.316406 1.625 -4.203125 C 1.625 -4.066406 1.660156 -3.953125 1.734375 -3.859375 C 1.816406 -3.773438 1.9375 -3.6875 2.09375 -3.59375 C 2.257812 -3.507812 2.460938 -3.410156 2.703125 -3.296875 C 2.992188 -3.160156 3.238281 -3.015625 3.4375 -2.859375 C 3.644531 -2.710938 3.804688 -2.535156 3.921875 -2.328125 C 4.035156 -2.128906 4.09375 -1.882812 4.09375 -1.59375 Z M 4.09375 -1.59375 "/></g></g></g><g fill="#222222" fill-opacity="1"><g transform="translate(9.419558, 8.962933)"><g><path d="M 2.921875 0 L 1.71875 0 L 1.71875 -4.703125 L 0.15625 -4.703125 L 0.15625 -5.71875 L 4.46875 -5.71875 L 4.46875 -4.703125 L 2.921875 -4.703125 Z M 2.921875 0 "/></g></g></g><g fill="#222222" fill-opacity="1"><g transform="translate(13.660368, 8.962933)"><g><path d="M 5.453125 -2.90625 C 5.453125 -2.269531 5.328125 -1.734375 5.078125 -1.296875 C 4.835938 -0.867188 4.484375 -0.546875 4.015625 -0.328125 C 3.554688 -0.109375 3 0 2.34375 0 L 0.71875 0 L 0.71875 -5.71875 L 2.515625 -5.71875 C 3.109375 -5.71875 3.625 -5.609375 4.0625 -5.390625 C 4.507812 -5.179688 4.851562 -4.867188 5.09375 -4.453125 C 5.332031 -4.035156 5.453125 -3.519531 5.453125 -2.90625 Z M 4.203125 -2.875 C 4.203125 -3.300781 4.140625 -3.648438 4.015625 -3.921875 C 3.890625 -4.191406 3.707031 -4.390625 3.46875 -4.515625 C 3.226562 -4.648438 2.929688 -4.71875 2.578125 -4.71875 L 1.9375 -4.71875 L 1.9375 -1 L 2.453125 -1 C 3.046875 -1 3.484375 -1.15625 3.765625 -1.46875 C 4.054688 -1.789062 4.203125 -2.257812 4.203125 -2.875 Z M 4.203125 -2.875 "/></g></g></g><g fill="#222222" fill-opacity="1"><g transform="translate(19.190239, 8.962933)"><g/></g></g><g fill="#222222" fill-opacity="1"><g transform="translate(20.876364, 8.962933)"><g><path d="M 4.3125 0 L 0.328125 0 L 0.328125 -0.84375 L 1.75 -2.296875 C 2.039062 -2.585938 2.273438 -2.832031 2.453125 -3.03125 C 2.628906 -3.226562 2.753906 -3.410156 2.828125 -3.578125 C 2.910156 -3.742188 2.953125 -3.921875 2.953125 -4.109375 C 2.953125 -4.335938 2.890625 -4.503906 2.765625 -4.609375 C 2.640625 -4.722656 2.472656 -4.78125 2.265625 -4.78125 C 2.035156 -4.78125 1.816406 -4.726562 1.609375 -4.625 C 1.398438 -4.53125 1.1875 -4.390625 0.96875 -4.203125 L 0.3125 -4.984375 C 0.46875 -5.117188 0.640625 -5.25 0.828125 -5.375 C 1.015625 -5.5 1.226562 -5.597656 1.46875 -5.671875 C 1.707031 -5.753906 2 -5.796875 2.34375 -5.796875 C 2.71875 -5.796875 3.039062 -5.726562 3.3125 -5.59375 C 3.582031 -5.457031 3.789062 -5.269531 3.9375 -5.03125 C 4.082031 -4.800781 4.15625 -4.539062 4.15625 -4.25 C 4.15625 -3.9375 4.09375 -3.648438 3.96875 -3.390625 C 3.84375 -3.128906 3.660156 -2.867188 3.421875 -2.609375 C 3.179688 -2.359375 2.894531 -2.078125 2.5625 -1.765625 L 1.828125 -1.078125 L 1.828125 -1.015625 L 4.3125 -1.015625 Z M 4.3125 0 "/></g></g></g><g fill="#222222" fill-opacity="1"><g transform="translate(25.058581, 8.962933)"><g><path d="M 4.28125 -2.859375 C 4.28125 -2.398438 4.242188 -1.988281 4.171875 -1.625 C 4.097656 -1.257812 3.984375 -0.953125 3.828125 -0.703125 C 3.671875 -0.453125 3.460938 -0.257812 3.203125 -0.125 C 2.953125 0.0078125 2.644531 0.078125 2.28125 0.078125 C 1.820312 0.078125 1.445312 -0.0351562 1.15625 -0.265625 C 0.863281 -0.503906 0.644531 -0.84375 0.5 -1.28125 C 0.363281 -1.71875 0.296875 -2.242188 0.296875 -2.859375 C 0.296875 -3.472656 0.359375 -4 0.484375 -4.4375 C 0.609375 -4.875 0.816406 -5.207031 1.109375 -5.4375 C 1.398438 -5.675781 1.789062 -5.796875 2.28125 -5.796875 C 2.738281 -5.796875 3.113281 -5.679688 3.40625 -5.453125 C 3.707031 -5.222656 3.925781 -4.882812 4.0625 -4.4375 C 4.207031 -4 4.28125 -3.472656 4.28125 -2.859375 Z M 1.484375 -2.859375 C 1.484375 -2.421875 1.507812 -2.054688 1.5625 -1.765625 C 1.613281 -1.472656 1.695312 -1.253906 1.8125 -1.109375 C 1.925781 -0.960938 2.082031 -0.890625 2.28125 -0.890625 C 2.476562 -0.890625 2.632812 -0.960938 2.75 -1.109375 C 2.875 -1.253906 2.957031 -1.472656 3 -1.765625 C 3.050781 -2.054688 3.078125 -2.421875 3.078125 -2.859375 C 3.078125 -3.296875 3.050781 -3.660156 3 -3.953125 C 2.957031 -4.242188 2.875 -4.460938 2.75 -4.609375 C 2.632812 -4.753906 2.476562 -4.828125 2.28125 -4.828125 C 2.082031 -4.828125 1.925781 -4.753906 1.8125 -4.609375 C 1.695312 -4.460938 1.613281 -4.242188 1.5625 -3.953125 C 1.507812 -3.660156 1.484375 -3.296875 1.484375 -2.859375 Z M 1.484375 -2.859375 "/></g></g></g><g fill="#222222" fill-opacity="1"><g transform="translate(29.240797, 8.962933)"><g><path d="M 4.3125 0 L 0.328125 0 L 0.328125 -0.84375 L 1.75 -2.296875 C 2.039062 -2.585938 2.273438 -2.832031 2.453125 -3.03125 C 2.628906 -3.226562 2.753906 -3.410156 2.828125 -3.578125 C 2.910156 -3.742188 2.953125 -3.921875 2.953125 -4.109375 C 2.953125 -4.335938 2.890625 -4.503906 2.765625 -4.609375 C 2.640625 -4.722656 2.472656 -4.78125 2.265625 -4.78125 C 2.035156 -4.78125 1.816406 -4.726562 1.609375 -4.625 C 1.398438 -4.53125 1.1875 -4.390625 0.96875 -4.203125 L 0.3125 -4.984375 C 0.46875 -5.117188 0.640625 -5.25 0.828125 -5.375 C 1.015625 -5.5 1.226562 -5.597656 1.46875 -5.671875 C 1.707031 -5.753906 2 -5.796875 2.34375 -5.796875 C 2.71875 -5.796875 3.039062 -5.726562 3.3125 -5.59375 C 3.582031 -5.457031 3.789062 -5.269531 3.9375 -5.03125 C 4.082031 -4.800781 4.15625 -4.539062 4.15625 -4.25 C 4.15625 -3.9375 4.09375 -3.648438 3.96875 -3.390625 C 3.84375 -3.128906 3.660156 -2.867188 3.421875 -2.609375 C 3.179688 -2.359375 2.894531 -2.078125 2.5625 -1.765625 L 1.828125 -1.078125 L 1.828125 -1.015625 L 4.3125 -1.015625 Z M 4.3125 0 "/></g></g></g><g fill="#222222" fill-opacity="1"><g transform="translate(33.423014, 8.962933)"><g><path d="M 2.40625 -3.65625 C 2.75 -3.65625 3.054688 -3.585938 3.328125 -3.453125 C 3.597656 -3.316406 3.8125 -3.117188 3.96875 -2.859375 C 4.125 -2.609375 4.203125 -2.289062 4.203125 -1.90625 C 4.203125 -1.5 4.117188 -1.144531 3.953125 -0.84375 C 3.785156 -0.550781 3.53125 -0.320312 3.1875 -0.15625 C 2.851562 0 2.4375 0.078125 1.9375 0.078125 C 1.632812 0.078125 1.347656 0.0507812 1.078125 0 C 0.816406 -0.0507812 0.585938 -0.128906 0.390625 -0.234375 L 0.390625 -1.28125 C 0.585938 -1.175781 0.820312 -1.085938 1.09375 -1.015625 C 1.375 -0.941406 1.640625 -0.90625 1.890625 -0.90625 C 2.128906 -0.90625 2.328125 -0.9375 2.484375 -1 C 2.648438 -1.0625 2.773438 -1.160156 2.859375 -1.296875 C 2.953125 -1.429688 3 -1.601562 3 -1.8125 C 3 -2.09375 2.90625 -2.304688 2.71875 -2.453125 C 2.53125 -2.597656 2.238281 -2.671875 1.84375 -2.671875 C 1.695312 -2.671875 1.539062 -2.65625 1.375 -2.625 C 1.21875 -2.601562 1.085938 -2.578125 0.984375 -2.546875 L 0.5 -2.796875 L 0.71875 -5.71875 L 3.8125 -5.71875 L 3.8125 -4.6875 L 1.78125 -4.6875 L 1.671875 -3.5625 C 1.765625 -3.582031 1.863281 -3.601562 1.96875 -3.625 C 2.070312 -3.644531 2.21875 -3.65625 2.40625 -3.65625 Z M 2.40625 -3.65625 "/></g></g></g></g></g></svg>